<?xml version="1.0" encoding="UTF-8"?>
<svg width="26px" height="26px" viewBox="0 0 26 26" version="1.1" xmlns="http://www.w3.org/2000/svg" xmlns:xlink="http://www.w3.org/1999/xlink">
    <title>home</title>
    <g id="client" stroke="none" stroke-width="1" fill="none" fill-rule="evenodd">
        <g id="iPhone-13-Pro-Max" transform="translate(-42, -1435)" fill="#D8D8D8" fill-rule="nonzero">
            <g id="Group-2" transform="translate(0, 1420)">
                <g id="home" transform="translate(42, 15)">
                    <path d="M20.9815638,25.9700086 L15.3279561,25.9700086 L15.3279561,18.9785499 C15.3279561,17.6914578 14.2856947,16.6480636 13,16.6480636 C11.7143053,16.6480636 10.6720439,17.6914578 10.6720439,18.9785499 L10.6720439,25.9700086 L5.01843618,25.9700086 C3.65299849,26.1284408 2.290105,25.6534665 1.31813114,24.6804362 C0.346157283,23.707406 -0.12830136,22.3430312 0.0299587905,20.9761095 L0.0299587905,12.5197737 C0.0299587905,9.6938926 0.809491524,8.90285898 2.08122069,7.84681578 L10.2224158,1.01383006 C11.8279725,-0.337943355 14.1720275,-0.337943355 15.7775842,1.01383006 L23.9187793,7.84681578 C25.1905085,8.90285898 25.9700412,9.6938926 25.9700412,12.5197737 L25.9700412,20.9761095 C26.1283014,22.3430312 25.6538427,23.707406 24.6818689,24.6804362 C23.709895,25.6534665 22.3470015,26.1284408 20.9815638,25.9700086 L20.9815638,25.9700086 Z M17.3233471,23.972449 L20.9815638,23.972449 C23.0793848,23.972449 23.9746503,23.0762106 23.9746503,20.9761095 L23.9746503,12.5197737 C23.9746503,10.4889213 23.6394246,10.2105947 22.6443896,9.38360501 L14.4965432,2.54396076 C13.6310541,1.81680583 12.3689459,1.81680583 11.5034568,2.54396076 L3.35428012,9.39026354 C2.36057543,10.2172532 2.02401949,10.4955799 2.02401949,12.5264322 L2.02401949,20.9761095 C2.02401949,23.0762106 2.91928489,23.972449 5.01710592,23.972449 L8.67665293,23.972449 L8.67665293,18.9785499 C8.67665293,16.5882361 10.6122813,14.650504 13,14.650504 C15.3877187,14.650504 17.3233471,16.5882361 17.3233471,18.9785499 L17.3233471,23.972449 Z"></path>
                </g>
            </g>
        </g>
    </g>
</svg>