<?xml version="1.0" encoding="UTF-8"?>
<svg width="26px" height="26px" viewBox="0 0 26 26" version="1.1" xmlns="http://www.w3.org/2000/svg" xmlns:xlink="http://www.w3.org/1999/xlink">
    <title>info-circle</title>
    <g id="client" stroke="none" stroke-width="1" fill="none" fill-rule="evenodd">
        <g id="iPhone-13-Pro-Max" transform="translate(-356, -1435)" fill="#D8D8D8" fill-rule="nonzero">
            <g id="Group-2" transform="translate(0, 1420)">
                <g id="info-circle" transform="translate(356, 15)">
                    <path d="M13,26 C5.82029825,26 0,20.1797017 0,13 C0,5.82029825 5.82029825,0 13,0 C20.1797017,0 26,5.82029825 26,13 C25.9920025,20.1763865 20.1763865,25.9920025 13,26 Z M13,1.81395349 C6.8221171,1.81395349 1.81395349,6.8221171 1.81395349,13 C1.81395349,19.1778829 6.8221171,24.1860465 13,24.1860465 C19.1778829,24.1860465 24.1860465,19.1778829 24.1860465,13 C24.1793815,6.82487994 19.1751201,1.82061849 13,1.81395349 Z M13.9069767,18.4418605 L13.9069767,12.9141395 C13.9069767,12.4132301 13.5009094,12.0071628 13,12.0071628 C12.4990906,12.0071628 12.0930233,12.4132301 12.0930233,12.9141395 L12.0930233,18.4418605 C12.0930233,18.9427699 12.4990906,19.3488372 13,19.3488372 C13.5009094,19.3488372 13.9069767,18.9427699 13.9069767,18.4418605 Z M14.2334884,8.76744186 C14.2334884,8.09956263 13.6920653,7.55813953 13.024186,7.55813953 L13.012093,7.55813953 C12.3458287,7.56480251 11.8104795,8.10914039 11.8149105,8.77542333 C11.8193414,9.44170627 12.3618828,9.97887595 13.0281768,9.97668386 C13.6944709,9.97447832 14.2334551,9.43373954 14.2334884,8.76744186 Z"></path>
                </g>
            </g>
        </g>
    </g>
</svg>