<?xml version="1.0" encoding="UTF-8"?>
<svg width="26px" height="26px" viewBox="0 0 26 26" version="1.1" xmlns="http://www.w3.org/2000/svg" xmlns:xlink="http://www.w3.org/1999/xlink">
    <title>link</title>
    <g id="client" stroke="none" stroke-width="1" fill="none" fill-rule="evenodd">
        <g id="iPhone-13-Pro-Max" transform="translate(-109, -1435)" fill="#D8D8D8" fill-rule="nonzero">
            <g id="Group-2" transform="translate(0, 1420)">
                <g id="link" transform="translate(109, 15)">
                    <path d="M20.4206169,16.0662316 C20.016785,16.0666382 19.6524655,15.8238197 19.4975185,15.4509872 C19.3425715,15.0781547 19.4275063,14.6487197 19.7127231,14.3629016 L22.3336634,11.7199418 C23.4086252,10.6595236 24.0095558,9.2099513 24.0000802,7.7001907 C24.0047029,5.39694745 22.6193092,3.31833591 20.4913451,2.43576851 C18.363381,1.55320111 15.9130713,2.04096496 14.2855368,3.67110989 L11.6685959,6.30473995 C11.4166423,6.5587749 11.0482686,6.65912998 10.7022375,6.56800242 C10.3562064,6.47687486 10.0850883,6.20810909 9.99101082,5.86294659 C9.89693329,5.51778409 9.99418894,5.14866324 10.2461425,4.89462831 L12.868416,2.25833263 C15.0674523,0.0542962088 18.3791058,-0.605989456 21.2555953,0.586076111 C24.1320848,1.77814168 26.0053126,4.58712931 25.9998913,7.7001907 C26.0108076,9.74052749 25.1991539,11.6992641 23.748118,13.1340519 L21.1338433,15.7663492 C20.9460757,15.9580787 20.6890099,16.0662316 20.4206169,16.0662316 Z M13.1350427,23.7472079 L15.7706475,21.1309043 C16.1623427,20.7415128 16.1641333,20.1083941 15.7746469,19.7167943 C15.3851604,19.3251944 14.7518876,19.3234043 14.3601923,19.7127958 L11.7205881,22.3304322 C9.48612498,24.478373 5.9433752,24.444068 3.75094529,22.253261 C1.55851538,20.062454 1.5224417,16.5205846 3.66979523,14.2855987 L6.30540004,11.6679623 C6.69856783,11.2782027 6.70125372,10.6435922 6.31139915,10.2505202 C5.92154457,9.85744819 5.28677952,9.85476295 4.89361173,10.2445226 L2.25400751,12.8674902 C-0.751075508,15.8714732 -0.751373941,20.7421904 2.25334095,23.7465415 C5.25805584,26.7508926 10.1299596,26.7511909 13.1350427,23.7472079 L13.1350427,23.7472079 Z M9.70888972,17.7055859 L17.743685,9.67541325 C18.0926614,9.28001786 18.0744049,8.68160882 17.7019739,8.30821169 C17.3295428,7.93481457 16.7310421,7.91486658 16.3345629,8.26263599 L8.29576827,16.2928086 C8.02827081,16.5420046 7.91815932,16.9173035 8.0086306,17.2714753 C8.09910189,17.625647 8.37572658,17.9022044 8.72998462,17.9926536 C9.08424266,18.0831029 9.45963299,17.9730182 9.70888972,17.7055859 L9.70888972,17.7055859 Z"></path>
                </g>
            </g>
        </g>
    </g>
</svg>