<?xml version="1.0" encoding="UTF-8"?>
<svg width="25px" height="28px" viewBox="0 0 25 28" version="1.1" xmlns="http://www.w3.org/2000/svg" xmlns:xlink="http://www.w3.org/1999/xlink">
    <title>note-text</title>
    <g id="client" stroke="none" stroke-width="1" fill="none" fill-rule="evenodd">
        <g id="iPhone-13-Pro-Max" transform="translate(-280, -1433)" fill="#D8D8D8" fill-rule="nonzero">
            <g id="Group-2" transform="translate(0, 1420)">
                <g id="note-text" transform="translate(280, 13)">
                    <path d="M19.6245199,27.9677367 L5.37548014,27.9677367 C3.9128964,28.1381707 2.45303786,27.6272152 1.41191151,26.5804742 C0.370785148,25.5337331 -0.137429548,24.0660016 0.0320902524,22.5955303 L0.0320902524,5.40446973 C-0.137429548,3.93399837 0.370785148,2.46626692 1.41191151,1.41952584 C2.45303786,0.372784766 3.9128964,-0.138170696 5.37548014,0.0322633129 L19.6245199,0.0322633129 C21.0871036,-0.138170696 22.5469621,0.372784766 23.5880885,1.41952584 C24.6292149,2.46626692 25.1374295,3.93399837 24.9679097,5.40446973 L24.9679097,22.5955303 C25.1374295,24.0660016 24.6292149,25.5337331 23.5880885,26.5804742 C22.5469621,27.6272152 21.0871036,28.1381707 19.6245199,27.9677367 L19.6245199,27.9677367 Z M5.37548014,2.18114588 C3.12840658,2.18114588 2.16944621,3.14527786 2.16944621,5.40446973 L2.16944621,22.5955303 C2.16944621,24.8547221 3.12840658,25.8188541 5.37548014,25.8188541 L19.6245199,25.8188541 C21.8715934,25.8188541 22.8305538,24.8547221 22.8305538,22.5955303 L22.8305538,5.40446973 C22.8305538,3.14527786 21.8715934,2.18114588 19.6245199,2.18114588 L5.37548014,2.18114588 Z M19.2682939,14 C19.2682939,13.4066025 18.7898304,12.9255587 18.1996159,12.9255587 L6.80038412,12.9255587 C6.21016957,12.9255587 5.73170614,13.4066025 5.73170614,14 C5.73170614,14.5933975 6.21016957,15.0744413 6.80038412,15.0744413 L18.1996159,15.0744413 C18.7898304,15.0744413 19.2682939,14.5933975 19.2682939,14 Z M14.9935819,19.7303535 C14.9935819,19.136956 14.5151185,18.6559122 13.924904,18.6559122 L6.80038412,18.6559122 C6.21016957,18.6559122 5.73170614,19.136956 5.73170614,19.7303535 C5.73170614,20.323751 6.21016957,20.8047948 6.80038412,20.8047948 L13.924904,20.8047948 C14.5151185,20.8047948 14.9935819,20.323751 14.9935819,19.7303535 Z M19.2682939,8.26964649 C19.2682939,7.67624895 18.7898304,7.1952052 18.1996159,7.1952052 L6.80038412,7.1952052 C6.21016957,7.1952052 5.73170614,7.67624895 5.73170614,8.26964649 C5.73170614,8.86304402 6.21016957,9.34408777 6.80038412,9.34408777 L18.1996159,9.34408777 C18.7898304,9.34408777 19.2682939,8.86304402 19.2682939,8.26964649 Z"></path>
                </g>
            </g>
        </g>
    </g>
</svg>